<?xml version="1.0" encoding="utf-8"?>
<svg id="visual" viewBox="0 0 900 600" width="900" height="600" version="1.1" preserveAspectRatio="xMidYMid slice" xmlns="http://www.w3.org/2000/svg">
  <rect x="0" y="0" width="900" height="600" fill="#ADEFD1"/>
  <g transform="matrix(1, 0, 0, 1, 407.908997, 262.225952)">
    <path d="M153 -162.1C211.2 -133.4 280.4 -97.5 310.9 -38.1C341.3 21.4 333 104.5 285.5 144.1C237.9 183.7 151 180 79.8 195.7C8.6 211.4 -47 246.7 -91.6 236.9C-136.2 227.1 -169.9 172.3 -195.9 117.7C-222 63.1 -240.5 8.7 -233.7 -43.2C-226.9 -95 -194.8 -144.4 -151.6 -175.8C-108.4 -207.2 -54.2 -220.6 -3.4 -216.5C47.4 -212.4 94.7 -190.9 153 -162.1" fill="#00203F"/>
  </g>
</svg>